<?xml version="1.0" standalone="no"?>
<!DOCTYPE svg PUBLIC "-//W3C//DTD SVG 20010904//EN"
 "http://www.w3.org/TR/2001/REC-SVG-20010904/DTD/svg10.dtd">
<svg version="1.0" xmlns="http://www.w3.org/2000/svg"
 width="512.000000pt" height="512.000000pt" viewBox="0 0 512.000000 512.000000"
 preserveAspectRatio="xMidYMid meet">
<metadata>
Created by potrace 1.14, written by Peter Selinger 2001-2017
</metadata>
<g transform="translate(0.000000,512.000000) scale(0.100000,-0.100000)"
fill="#000000" stroke="none">
<path d="M445 5046 c-180 -45 -329 -195 -372 -376 -10 -44 -12 -450 -10 -2135
l2 -2080 27 -68 c65 -162 186 -269 353 -312 53 -13 299 -15 2115 -15 1431 1
2070 4 2105 12 93 20 175 66 246 138 78 79 121 162 139 265 8 52 11 591 8
2130 l-3 2060 -24 63 c-47 127 -161 245 -291 299 l-65 28 -2090 2 c-1638 1
-2101 -1 -2140 -11z"/>
</g>
</svg>
